<?xml version="1.0" encoding="utf-8"?>
<svg viewBox="0 0 500 500" xmlns="http://www.w3.org/2000/svg">
  <g transform="matrix(1, 0, 0, 1, 2.787037, -2.402498)">
    <g>
      <g>
        <path d="M 221.463 219.323 C 218.842 222.067 218.842 226.509 221.463 229.246 L 248.264 257.31 C 249.571 258.686 251.287 259.366 253.002 259.366 C 254.718 259.366 256.433 258.685 257.74 257.31 C 260.361 254.573 260.361 250.13 257.74 247.387 L 230.939 219.323 C 228.319 216.586 224.084 216.586 221.463 219.323 Z" style="fill: rgb(255, 232, 26);"/>
        <path d="M 222.449 130.978 C 223.776 132.627 225.673 133.483 227.589 133.483 C 229.11 133.483 230.638 132.943 231.891 131.841 C 234.726 129.343 235.095 124.921 232.716 121.953 L 208.817 92.136 C 206.438 89.174 202.209 88.781 199.374 91.272 C 196.539 93.763 196.171 98.192 198.55 101.16 L 222.449 130.978 Z" style="fill: rgb(255, 232, 26);"/>
        <path d="M 206.089 210.242 C 207.805 210.242 209.521 209.555 210.827 208.186 C 213.448 205.442 213.448 201.001 210.827 198.264 L 184.034 170.207 C 181.413 167.47 177.178 167.47 174.558 170.207 C 171.937 172.952 171.937 177.393 174.558 180.13 L 201.351 208.186 C 202.658 209.554 204.373 210.242 206.089 210.242 Z" style="fill: rgb(255, 232, 26);"/>
        <path d="M 161.08 240.748 C 158.305 238.166 154.083 238.418 151.617 241.323 C 149.151 244.215 149.398 248.65 152.16 251.232 L 181.527 278.643 C 182.8 279.836 184.395 280.419 185.984 280.419 C 187.827 280.419 189.663 279.632 190.99 278.075 C 193.45 275.183 193.208 270.742 190.447 268.166 L 161.08 240.748 Z" style="fill: rgb(255, 232, 26);"/>
        <path d="M 179.443 77.77 C 180.77 79.413 182.659 80.255 184.562 80.255 C 186.091 80.255 187.625 79.707 188.885 78.598 C 191.713 76.093 192.062 71.665 189.676 68.704 L 164.297 37.285 C 161.897 34.324 157.682 33.959 154.847 36.465 C 152.025 38.97 151.67 43.391 154.056 46.352 L 179.443 77.77 Z" style="fill: rgb(255, 232, 26);"/>
        <path d="M 267.994 186.712 C 269.327 188.347 271.211 189.189 273.107 189.189 C 274.649 189.189 276.184 188.641 277.443 187.526 C 280.265 185.021 280.613 180.592 278.221 177.631 L 252.459 145.835 C 250.073 142.894 245.838 142.522 243.01 145.02 C 240.188 147.533 239.846 151.96 242.239 154.915 L 267.994 186.712 Z" style="fill: rgb(255, 232, 26);"/>
        <path d="M 380.024 256.746 C 381.31 258.774 383.441 259.868 385.606 259.868 C 386.886 259.868 388.173 259.489 389.318 258.689 C 392.401 256.542 393.232 252.184 391.175 248.963 L 257.138 38.433 C 255.088 35.206 250.919 34.328 247.843 36.483 C 244.766 38.63 243.935 42.995 245.986 46.216 L 380.024 256.746 Z" style="fill: rgb(255, 232, 26);"/>
        <path d="M 444.686 270.924 C 441.744 264.285 434.921 260.019 428.26 260.952 C 422.563 261.739 373.258 269.465 357.649 271.914 L 324.61 208.825 C 320.267 199.618 314.859 197.681 311.092 197.681 C 303.124 197.681 297.528 206.032 296.12 214.277 C 294.747 222.299 288.186 268.145 286.034 283.212 C 270.894 286.917 221.71 298.924 213.949 300.377 C 207.005 301.676 199.419 306.447 198.113 314.167 C 197.496 317.809 197.925 324.834 207.77 330.841 C 218.882 337.627 254.603 360.202 266.27 367.585 L 258.67 430.913 C 258.08 435.853 259.588 440.885 262.825 444.724 C 265.902 448.38 270.177 450.471 274.567 450.471 C 278.307 450.471 281.885 448.99 284.821 446.282 C 290.443 441.313 323.148 411.713 333.469 402.359 C 348.454 408.822 402.766 432.247 409.943 435.454 C 412.818 436.745 415.68 437.398 418.441 437.398 C 423.936 437.398 428.748 434.689 431.329 430.149 C 434.197 425.117 434.003 418.675 430.993 412.907 C 427.703 405.405 405.708 356.324 399.173 341.755 L 442.273 288.267 C 446.354 283.199 447.259 276.714 444.686 270.924 Z M 432.033 279.219 L 386.159 336.132 C 384.471 338.23 384.101 341.163 385.214 343.641 C 385.214 343.648 414.95 409.951 419.018 419.179 C 420.044 421.158 420.05 422.554 419.809 422.968 C 419.701 423.165 419.199 423.362 418.442 423.362 C 417.798 423.362 416.712 423.221 415.211 422.547 C 406.834 418.807 337.692 389.003 334.756 387.733 C 332.417 386.743 329.743 387.185 327.819 388.919 C 327.819 388.919 282.844 429.656 276.061 435.656 C 275.297 436.365 273.916 436.673 272.878 435.438 C 272.195 434.638 271.86 433.599 271.973 432.666 L 280.116 364.806 C 280.438 362.061 279.198 359.367 276.933 357.928 C 276.444 357.62 227.902 326.889 214.526 318.72 C 212.844 317.696 212.006 316.889 211.604 316.412 C 212.321 315.703 213.969 314.63 216.308 314.194 C 225.811 312.412 290.765 296.474 293.526 295.794 C 296.193 295.135 298.217 292.839 298.619 289.997 C 298.714 289.352 307.734 225.982 309.315 216.754 C 309.624 214.937 310.408 213.337 311.071 212.397 C 311.481 212.965 312.043 213.878 312.727 215.309 L 348.146 282.952 C 349.5 285.534 352.228 286.98 355.016 286.517 C 355.699 286.412 423.496 275.766 430.076 274.86 C 430.719 274.86 432 275.633 432.536 276.839 C 432.79 277.409 432.951 278.061 432.033 279.219 Z" style="fill: rgb(255, 232, 26);"/>
        <path d="M 151.555 156.043 C 152.862 157.419 154.578 158.099 156.293 158.099 C 158.009 158.099 159.724 157.418 161.031 156.043 C 163.652 153.306 163.652 148.863 161.031 146.12 L 134.23 118.056 C 131.617 115.319 127.374 115.319 124.754 118.056 C 122.133 120.8 122.133 125.242 124.754 127.979 L 151.555 156.043 Z" style="fill: rgb(255, 232, 26);"/>
        <path d="M 47.611 159.456 L 77.246 185.772 C 78.506 186.888 80.048 187.435 81.576 187.435 C 83.479 187.435 85.369 186.592 86.696 184.958 C 89.088 182.003 88.74 177.575 85.918 175.07 L 56.283 148.754 C 53.455 146.249 49.226 146.607 46.834 149.561 C 44.441 152.522 44.789 156.95 47.611 159.456 Z" style="fill: rgb(255, 232, 26);"/>
        <path d="M 243.619 394.104 L 55.968 246.74 C 53 244.403 48.804 245.049 46.586 248.137 C 44.367 251.239 44.964 255.639 47.926 257.962 L 235.577 405.332 C 236.783 406.28 238.198 406.736 239.591 406.736 C 241.628 406.736 243.646 405.767 244.959 403.929 C 247.178 400.834 246.581 396.434 243.619 394.104 Z" style="fill: rgb(255, 232, 26);"/>
        <path d="M 67.328 67.847 C 68.635 69.222 70.351 69.903 72.066 69.903 C 73.782 69.903 75.497 69.222 76.804 67.847 C 79.425 65.111 79.425 60.668 76.804 57.925 L 56.685 36.858 C 54.072 34.121 49.829 34.121 47.209 36.858 C 44.589 39.602 44.589 44.044 47.209 46.781 L 67.328 67.847 Z" style="fill: rgb(255, 232, 26);"/>
        <path d="M 108.953 194.803 C 106.125 192.298 101.896 192.662 99.511 195.617 C 97.119 198.572 97.466 203 100.288 205.512 L 128.557 230.621 C 129.817 231.737 131.358 232.284 132.893 232.284 C 134.79 232.284 136.679 231.442 138.006 229.807 C 140.399 226.852 140.051 222.424 137.229 219.912 L 108.953 194.803 Z" style="fill: rgb(255, 232, 26);"/>
        <path d="M 107.512 109.925 C 108.819 111.301 110.535 111.981 112.25 111.981 C 113.966 111.981 115.682 111.3 116.988 109.925 C 119.608 107.188 119.608 102.746 116.988 100.002 L 96.896 78.964 C 94.283 76.227 90.04 76.227 87.42 78.964 C 84.799 81.708 84.799 86.149 87.42 88.886 L 107.512 109.925 Z" style="fill: rgb(255, 232, 26);"/>
      </g>
    </g>
  </g>
  <g transform="matrix(1, 0, 0, 1, 2.787037, -2.402498)"/>
  <g transform="matrix(1, 0, 0, 1, 2.787037, -2.402498)"/>
  <g transform="matrix(1, 0, 0, 1, 2.787037, -2.402498)"/>
  <g transform="matrix(1, 0, 0, 1, 2.787037, -2.402498)"/>
  <g transform="matrix(1, 0, 0, 1, 2.787037, -2.402498)"/>
  <g transform="matrix(1, 0, 0, 1, 2.787037, -2.402498)"/>
  <g transform="matrix(1, 0, 0, 1, 2.787037, -2.402498)"/>
  <g transform="matrix(1, 0, 0, 1, 2.787037, -2.402498)"/>
  <g transform="matrix(1, 0, 0, 1, 2.787037, -2.402498)"/>
  <g transform="matrix(1, 0, 0, 1, 2.787037, -2.402498)"/>
  <g transform="matrix(1, 0, 0, 1, 2.787037, -2.402498)"/>
  <g transform="matrix(1, 0, 0, 1, 2.787037, -2.402498)"/>
  <g transform="matrix(1, 0, 0, 1, 2.787037, -2.402498)"/>
  <g transform="matrix(1, 0, 0, 1, 2.787037, -2.402498)"/>
  <g transform="matrix(1, 0, 0, 1, 2.787037, -2.402498)"/>
</svg>