<svg width="24" height="24" viewBox="0 0 24 24" fill="none" xmlns="http://www.w3.org/2000/svg">
<path d="M4.57504 4.575C4.85634 4.29379 5.2378 4.13582 5.63554 4.13582C6.03329 4.13582 6.41475 4.29379 6.69604 4.575L12 9.879L17.304 4.575C17.5869 4.30176 17.9658 4.15057 18.3591 4.15399C18.7524 4.1574 19.1287 4.31516 19.4068 4.59327C19.6849 4.87138 19.8426 5.2476 19.8461 5.6409C19.8495 6.03419 19.6983 6.4131 19.425 6.696L14.121 12L19.425 17.304C19.6983 17.5869 19.8495 17.9658 19.8461 18.3591C19.8426 18.7524 19.6849 19.1286 19.4068 19.4067C19.1287 19.6848 18.7524 19.8426 18.3591 19.846C17.9658 19.8494 17.5869 19.6982 17.304 19.425L12 14.121L6.69604 19.425C6.41314 19.6982 6.03424 19.8494 5.64094 19.846C5.24765 19.8426 4.87143 19.6848 4.59332 19.4067C4.3152 19.1286 4.15745 18.7524 4.15403 18.3591C4.15062 17.9658 4.30181 17.5869 4.57504 17.304L9.87904 12L4.57504 6.696C4.29384 6.41471 4.13586 6.03324 4.13586 5.6355C4.13586 5.23775 4.29384 4.85629 4.57504 4.575V4.575Z" fill="white"/>
</svg>
