<?xml version="1.0" encoding="iso-8859-1"?>
<!-- Generator: Adobe Illustrator 19.0.0, SVG Export Plug-In . SVG Version: 6.00 Build 0)  -->
<svg version="1.1" id="Layer_1" xmlns="http://www.w3.org/2000/svg" xmlns:xlink="http://www.w3.org/1999/xlink" x="0px" y="0px"
	 viewBox="0 0 512.13 512.13" style="enable-background:new 0 0 512.13 512.13" xml:space="preserve" fill="#FFFF00" >
<g>
	<g>
		<g>
			<path d="M224.444,224.378c-3.337,3.337-3.337,8.738,0,12.066l34.125,34.125c1.664,1.673,3.849,2.5,6.033,2.5
				c2.185,0,4.369-0.828,6.033-2.5c3.337-3.328,3.337-8.73,0-12.066l-34.125-34.125C233.174,221.05,227.781,221.05,224.444,224.378z
				"/>
	
			<path d="M225.699,116.952c1.69,2.005,4.105,3.046,6.545,3.046c1.937,0,3.883-0.657,5.478-1.997
				c3.61-3.038,4.079-8.414,1.05-12.023l-30.43-36.258c-3.029-3.601-8.414-4.079-12.023-1.05c-3.61,3.029-4.079,8.414-1.05,12.023
				L225.699,116.952z"/>
			<path d="M204.869,213.336c2.185,0,4.369-0.836,6.033-2.5c3.337-3.337,3.337-8.738,0-12.066l-34.116-34.116
				c-3.337-3.328-8.73-3.328-12.066,0c-3.337,3.337-3.337,8.738,0,12.066l34.116,34.116
				C200.5,212.499,202.684,213.336,204.869,213.336z"/>
			<path d="M147.559,250.43c-3.533-3.14-8.909-2.833-12.049,0.7c-3.14,3.516-2.825,8.909,0.691,12.049l37.393,33.331
				c1.621,1.451,3.652,2.159,5.675,2.159c2.347,0,4.685-0.956,6.374-2.85c3.132-3.516,2.825-8.917-0.691-12.049L147.559,250.43z"/>
			<path d="M170.94,52.252c1.69,1.997,4.096,3.021,6.519,3.021c1.946,0,3.9-0.666,5.504-2.014c3.601-3.046,4.045-8.431,1.007-12.032
				L151.655,3.023c-3.055-3.601-8.422-4.045-12.032-0.998c-3.593,3.046-4.045,8.422-1.007,12.023L170.94,52.252z"/>
			<path d="M283.691,184.723c1.698,1.988,4.096,3.012,6.511,3.012c1.963,0,3.917-0.666,5.521-2.022
				c3.593-3.046,4.036-8.431,0.99-12.032l-32.802-38.664c-3.038-3.576-8.431-4.028-12.032-0.99
				c-3.593,3.055-4.028,8.439-0.981,12.032L283.691,184.723z"/>
			<path d="M428.169,269.272c1.638,2.466,4.352,3.797,7.108,3.797c1.63,0,3.268-0.461,4.727-1.434
				c3.925-2.611,4.983-7.91,2.364-11.827l-170.667-256c-2.611-3.925-7.919-4.992-11.836-2.372
				c-3.917,2.611-4.975,7.919-2.364,11.836L428.169,269.272z"/>
			<path d="M510.225,293.805c-3.746-8.073-12.433-13.261-20.915-12.126c-7.253,0.956-70.033,10.351-89.907,13.329l-42.069-76.715
				c-5.53-11.196-12.416-13.551-17.212-13.551c-10.146,0-17.271,10.155-19.063,20.181c-1.749,9.754-10.103,65.502-12.843,83.823
				c-19.277,4.506-81.903,19.106-91.785,20.873c-8.841,1.579-18.5,7.381-20.164,16.768c-0.785,4.429-0.239,12.971,12.297,20.275
				c14.148,8.252,59.631,35.703,74.487,44.681l-9.677,77.005c-0.751,6.007,1.169,12.126,5.291,16.794
				c3.917,4.446,9.361,6.989,14.95,6.989c4.762,0,9.318-1.801,13.056-5.094c7.159-6.042,48.802-42.035,61.943-53.41
				c19.081,7.859,88.235,36.343,97.374,40.243c3.661,1.57,7.305,2.364,10.82,2.364c6.997,0,13.124-3.294,16.41-8.815
				c3.652-6.118,3.405-13.952-0.427-20.966c-4.19-9.122-32.196-68.804-40.516-86.519l54.878-65.041
				C512.35,308.73,513.502,300.845,510.225,293.805z M494.115,303.891l-58.411,69.205c-2.15,2.551-2.62,6.118-1.203,9.131
				c0,0.009,37.862,80.632,43.042,91.853c1.306,2.406,1.314,4.104,1.007,4.608c-0.137,0.239-0.777,0.478-1.741,0.478
				c-0.819,0-2.202-0.171-4.113-0.99c-10.667-4.548-98.705-40.789-102.443-42.334c-2.978-1.203-6.383-0.666-8.832,1.442
				c0,0-57.267,49.536-65.903,56.832c-0.973,0.862-2.731,1.237-4.053-0.265c-0.87-0.973-1.297-2.236-1.152-3.371l10.368-82.517
				c0.41-3.337-1.169-6.613-4.053-8.363c-0.623-0.375-62.43-37.743-79.462-47.676c-2.142-1.246-3.209-2.227-3.721-2.807
				c0.913-0.862,3.012-2.167,5.99-2.697c12.1-2.167,94.805-21.547,98.321-22.374c3.396-0.802,5.973-3.593,6.485-7.049
				c0.12-0.785,11.605-77.841,13.619-89.062c0.393-2.21,1.391-4.156,2.236-5.299c0.521,0.691,1.237,1.801,2.108,3.541l45.099,82.253
				c1.724,3.14,5.197,4.898,8.747,4.335c0.87-0.128,87.194-13.073,95.573-14.174c0.819,0,2.449,0.939,3.132,2.406
				C495.079,301.69,495.284,302.483,494.115,303.891z"/>
			<path d="M139.094,151.093c1.664,1.673,3.849,2.5,6.033,2.5c2.185,0,4.369-0.828,6.033-2.5c3.337-3.328,3.337-8.73,0-12.066
				l-34.125-34.125c-3.328-3.328-8.73-3.328-12.066,0c-3.337,3.336-3.337,8.738,0,12.066L139.094,151.093z"/>
			<path d="M3.081,151.58l37.734,32c1.604,1.357,3.567,2.022,5.513,2.022c2.423,0,4.83-1.024,6.519-3.012
				c3.046-3.593,2.603-8.977-0.99-12.023l-37.734-32c-3.601-3.046-8.986-2.611-12.032,0.981
				C-0.955,143.149-0.512,148.533,3.081,151.58z"/>
			<path d="M252.655,436.909L13.722,257.717c-3.78-2.842-9.122-2.057-11.947,1.698c-2.825,3.772-2.065,9.122,1.707,11.947
				l238.933,179.2c1.536,1.152,3.337,1.707,5.111,1.707c2.594,0,5.163-1.178,6.835-3.413
				C257.186,445.092,256.427,439.742,252.655,436.909z"/>
			<path d="M28.186,40.186c1.664,1.672,3.849,2.5,6.033,2.5c2.185,0,4.369-0.828,6.033-2.5c3.337-3.328,3.337-8.73,0-12.066
				L14.635,2.503c-3.328-3.328-8.73-3.328-12.066,0c-3.336,3.337-3.336,8.738,0,12.066L28.186,40.186z"/>
			<path d="M81.187,194.562c-3.601-3.046-8.986-2.603-12.023,0.99c-3.046,3.593-2.603,8.977,0.99,12.032l35.994,30.532
				c1.604,1.357,3.567,2.022,5.521,2.022c2.415,0,4.821-1.024,6.511-3.012c3.046-3.593,2.603-8.977-0.99-12.032L81.187,194.562z"/>
			<path d="M79.352,91.352c1.664,1.673,3.849,2.5,6.033,2.5c2.185,0,4.369-0.828,6.033-2.5c3.336-3.328,3.336-8.73,0-12.066
				L65.835,53.703c-3.328-3.328-8.73-3.328-12.066,0c-3.337,3.337-3.337,8.738,0,12.066L79.352,91.352z"/>
		</g>
	</g>
</g>
<g>
</g>
<g>
</g>
<g>
</g>
<g>
</g>
<g>
</g>
<g>
</g>
<g>
</g>
<g>
</g>
<g>
</g>
<g>
</g>
<g>
</g>
<g>
</g>
<g>
</g>
<g>
</g>
<g>
</g>
</svg>
